<?xml version="1.0" standalone="no"?>
<!DOCTYPE svg PUBLIC "-//W3C//DTD SVG 20010904//EN"
 "http://www.w3.org/TR/2001/REC-SVG-20010904/DTD/svg10.dtd">
<svg version="1.0" xmlns="http://www.w3.org/2000/svg"
 width="200.000000pt" height="200.000000pt" viewBox="0 0 200.000000 200.000000"
 preserveAspectRatio="xMidYMid meet">
<metadata>
Created by potrace 1.11, written by Peter Selinger 2001-2013
</metadata>
<g transform="translate(0.000000,200.000000) scale(0.100000,-0.100000)"
fill="#000000" stroke="none">
<path d="M1639 1626 l-244 -244 -35 28 c-53 42 -141 87 -222 112 -58 18 -97
23 -188 23 -100 0 -126 -4 -204 -29 -263 -86 -447 -321 -463 -592 -20 -331
187 -618 505 -699 67 -17 201 -24 267 -13 392 66 644 450 546 831 -22 83 -75
193 -116 241 -14 16 -25 32 -25 35 0 3 108 114 240 246 132 132 240 243 240
248 0 7 -49 57 -55 57 -2 0 -112 -110 -246 -244z m-567 -359 c26 -8 68 -27 93
-42 l46 -26 -156 -157 -156 -156 31 -30 30 -31 155 155 c127 127 157 152 166
140 6 -8 25 -44 42 -80 74 -154 26 -365 -107 -475 -46 -37 -133 -80 -181 -90
-165 -32 -338 41 -428 180 -73 112 -85 266 -30 385 90 194 296 288 495 227z"/>
</g>
</svg>
