<svg width="249" height="72" xmlns="http://www.w3.org/2000/svg"><g fill="#0D0F10" fill-rule="evenodd"><path d="M26.943 33.935v6.26H.965V35.22l16.172-19.653H1.503V9.272h25.43l.01 4.857L10.63 33.971zM202.725 33.935v6.26h-25.978V35.22l16.172-19.653h-15.634V9.272h25.43l.01 4.857-16.314 19.842zM51.61 29.607l4.896-13.159 4.915 13.16h-9.81zm8.472-20.37l-7.102-.002-12.549 30.988 7.16-.013s.695-1.98 1.214-3.33c.52-1.352 1.143-1.507 2.026-1.507h11.271c1.507 0 1.714.675 2.026 1.506.312.831 1.287 3.344 1.287 3.344h7.174L60.082 9.236zM227.4 29.607l4.895-13.159 4.914 13.16h-9.81zm8.47-20.37l-7.102-.002-12.549 30.988 7.161-.013s.695-1.98 1.214-3.33c.52-1.352 1.143-1.507 2.026-1.507h11.271c1.506 0 1.714.675 2.026 1.506.311.831 1.287 3.344 1.287 3.344h7.174L235.87 9.236zM87.151 40.196h6.557V20.388l15.975 19.819 5.723.016V9.272h-6.482l.03 19.92-16.06-19.934-5.743-.013zM147.098 34.567c-5.437 0-9.843-4.407-9.843-9.842 0-5.436 4.406-9.843 9.843-9.843 5.436 0 9.842 4.407 9.842 9.843 0 5.435-4.406 9.842-9.842 9.842m0-25.97c-8.907 0-16.128 7.22-16.128 16.128 0 8.907 7.22 16.128 16.128 16.128 8.907 0 16.128-7.221 16.128-16.128 0-8.908-7.221-16.128-16.128-16.128M71.656 65.125c0-2.766-2.019-5.027-4.802-5.027-2.783 0-4.766 2.226-4.766 5.027 0 2.766 2.017 5.027 4.8 5.027 2.785 0 4.768-2.226 4.768-5.027m-10.994 0c0-3.357 2.521-6.297 6.226-6.297 3.706 0 6.194 2.905 6.194 6.297 0 3.357-2.523 6.298-6.228 6.298-3.705 0-6.192-2.905-6.192-6.298M85.24 65.664c2.018 0 3.34-1.078 3.34-2.714 0-1.739-1.305-2.643-3.27-2.643h-3.08v5.357h3.01zm-4.384-6.627h4.557c2.75 0 4.558 1.461 4.558 3.897 0 2.626-2.192 3.983-4.784 3.983H82.23v4.297h-1.374V59.037zM97.346 59.037h8.803v1.252h-7.43v4.157h6.647V65.7H98.72v4.262h7.516v1.253h-8.89zM113.87 59.037h1.287l7.672 9.76v-9.76h1.34v12.177h-1.097l-7.862-9.986v9.986h-1.34zM148.015 69.979c1.844 0 2.992-.817 2.992-2.21 0-1.322-1.113-2.087-3.235-2.087h-3.845v4.297h4.088zm-.487-5.515c1.653 0 2.8-.748 2.8-2.21 0-1.2-.956-1.982-2.696-1.982h-3.705v4.192h3.6zm-4.957-5.426h5.183c1.392 0 2.505.382 3.184 1.078.504.52.782 1.165.782 1.983 0 1.583-.974 2.4-1.931 2.818 1.445.435 2.61 1.27 2.61 2.974 0 2.088-1.757 3.323-4.418 3.323h-5.41V59.038zM167.896 66.76l-2.766-6.21-2.784 6.21h5.55zm-3.393-7.81h1.29l5.547 12.264h-1.478l-1.427-3.22h-6.628l-1.442 3.22h-1.41l5.548-12.264zM183.725 65.247c1.827 0 3.132-.939 3.132-2.54 0-1.496-1.15-2.4-3.114-2.4h-3.758v4.94h3.74zm-5.114-6.21h5.236c1.496 0 2.696.452 3.462 1.217.59.592.939 1.444.939 2.435 0 2.02-1.391 3.202-3.305 3.55l3.74 4.975h-1.687l-3.532-4.732h-3.48v4.732h-1.373V59.037z"/><path d="M171.001 2.294l-23.68 23.68-1.475-1.476L169.525.818z"/></g></svg>